<svg width="1440" height="2400" viewBox="0 0 1440 2400" fill="none" xmlns="http://www.w3.org/2000/svg">
  <!-- HEADER -->
  <rect x="0" y="0" width="1440" height="80" fill="#F0F0F0" stroke="#CCCCCC"/>
  <rect x="40" y="20" width="120" height="40" fill="#FFFFFF" stroke="#AAAAAA"/>
  <text x="100" y="45" font-family="Arial" font-size="12" fill="#666666" text-anchor="middle">LOGO</text>
  <rect x="400" y="20" width="600" height="40" fill="#FFFFFF" stroke="#AAAAAA"/>
  <text x="700" y="45" font-family="Arial" font-size="12" fill="#666666" text-anchor="middle">NAVIGATION</text>
  <rect x="1200" y="20" width="200" height="40" fill="#666666"/>
  <text x="1300" y="45" font-family="Arial" font-size="12" fill="#FFFFFF" text-anchor="middle">BOUTON CTA</text>

  <!-- HERO SECTION -->
  <rect x="0" y="80" width="1440" height="520" fill="#4A4A4A" stroke="#333333"/>
  <text x="720" y="100" font-family="Arial" font-size="11" fill="#FFFFFF" text-anchor="middle">HERO SECTION</text>
  
  <!-- Hero Gauche - Contenu texte -->
  <rect x="60" y="130" width="580" height="420" fill="#5A5A5A" stroke="#444444"/>
  <text x="80" y="170" font-family="Arial" font-size="14" fill="#DDDDDD">TITRE PRINCIPAL</text>
  <rect x="80" y="190" width="450" height="15" fill="#777777"/>
  <rect x="80" y="215" width="500" height="15" fill="#777777"/>
  <rect x="80" y="240" width="380" height="15" fill="#777777"/>
  <rect x="80" y="290" width="400" height="12" fill="#666666"/>
  <rect x="80" y="310" width="350" height="12" fill="#666666"/>
  <rect x="80" y="370" width="180" height="50" fill="#888888"/>
  <text x="170" y="400" font-family="Arial" font-size="10" fill="#FFFFFF" text-anchor="middle">BOUTON CTA 1</text>
  <rect x="280" y="370" width="180" height="50" fill="#6A6A6A" stroke="#555555"/>
  <text x="370" y="400" font-family="Arial" font-size="10" fill="#DDDDDD" text-anchor="middle">BOUTON CTA 2</text>
  <rect x="80" y="460" width="300" height="60" fill="#5A5A5A" stroke="#444444"/>
  <text x="230" y="495" font-family="Arial" font-size="10" fill="#AAAAAA" text-anchor="middle">TRUST BADGES</text>

  <!-- Hero Droite - Image -->
  <rect x="700" y="130" width="680" height="420" fill="#E0E0E0" stroke="#AAAAAA"/>
  <line x1="700" y1="130" x2="1380" y2="550" stroke="#BBBBBB" stroke-width="1"/>
  <line x1="1380" y1="130" x2="700" y2="550" stroke="#BBBBBB" stroke-width="1"/>
  <text x="1040" y="350" font-family="Arial" font-size="14" fill="#888888" text-anchor="middle">IMAGE</text>
  <rect x="720" y="480" width="100" height="60" fill="#999999"/>
  <text x="770" y="515" font-family="Arial" font-size="9" fill="#FFFFFF" text-anchor="middle">BADGE</text>

  <!-- STATISTIQUES -->
  <rect x="0" y="600" width="1440" height="120" fill="#FFFFFF" stroke="#CCCCCC"/>
  <text x="720" y="620" font-family="Arial" font-size="11" fill="#666666" text-anchor="middle">STATISTIQUES</text>
  <rect x="120" y="640" width="220" height="60" fill="#F0F0F0" stroke="#CCCCCC"/>
  <text x="230" y="675" font-family="Arial" font-size="10" fill="#666666" text-anchor="middle">STAT 1</text>
  <rect x="400" y="640" width="220" height="60" fill="#F0F0F0" stroke="#CCCCCC"/>
  <text x="510" y="675" font-family="Arial" font-size="10" fill="#666666" text-anchor="middle">STAT 2</text>
  <rect x="680" y="640" width="220" height="60" fill="#F0F0F0" stroke="#CCCCCC"/>
  <text x="790" y="675" font-family="Arial" font-size="10" fill="#666666" text-anchor="middle">STAT 3</text>
  <rect x="960" y="640" width="220" height="60" fill="#F0F0F0" stroke="#CCCCCC"/>
  <text x="1070" y="675" font-family="Arial" font-size="10" fill="#666666" text-anchor="middle">STAT 4</text>

  <!-- À PROPOS -->
  <rect x="0" y="720" width="1440" height="400" fill="#F5F5F5" stroke="#CCCCCC"/>
  <text x="720" y="750" font-family="Arial" font-size="12" fill="#666666" text-anchor="middle">PRÉSENTATION ENTREPRISE</text>
  
  <rect x="80" y="780" width="550" height="300" fill="#E0E0E0" stroke="#AAAAAA"/>
  <line x1="80" y1="780" x2="630" y2="1080" stroke="#BBBBBB" stroke-width="1"/>
  <line x1="630" y1="780" x2="80" y2="1080" stroke="#BBBBBB" stroke-width="1"/>
  <text x="355" y="940" font-family="Arial" font-size="12" fill="#888888" text-anchor="middle">IMAGE</text>
  <rect x="530" y="1000" width="100" height="70" fill="#666666"/>
  <text x="580" y="1040" font-family="Arial" font-size="9" fill="#FFFFFF" text-anchor="middle">BADGE</text>

  <rect x="700" y="780" width="660" height="300" fill="#FFFFFF" stroke="#CCCCCC"/>
  <text x="720" y="820" font-family="Arial" font-size="14" fill="#333333">TEXTE</text>
  <rect x="720" y="840" width="500" height="12" fill="#DDDDDD"/>
  <rect x="720" y="860" width="550" height="12" fill="#DDDDDD"/>
  <rect x="720" y="880" width="480" height="12" fill="#DDDDDD"/>
  <rect x="720" y="920" width="300" height="100" fill="#F0F0F0" stroke="#CCCCCC"/>
  <text x="870" y="975" font-family="Arial" font-size="10" fill="#888888" text-anchor="middle">LISTE</text>
  <rect x="720" y="1030" width="140" height="40" fill="#666666"/>
  <text x="790" y="1055" font-family="Arial" font-size="10" fill="#FFFFFF" text-anchor="middle">BOUTON</text>

  <!-- NOS SERVICES -->
  <rect x="0" y="1120" width="1440" height="480" fill="#FFFFFF" stroke="#CCCCCC"/>
  <text x="720" y="1160" font-family="Arial" font-size="12" fill="#666666" text-anchor="middle">NOS SERVICES</text>
  
  <rect x="80" y="1200" width="400" height="360" fill="#E8E8E8" stroke="#CCCCCC"/>
  <rect x="80" y="1200" width="400" height="180" fill="#D0D0D0"/>
  <line x1="80" y1="1200" x2="480" y2="1380" stroke="#BBBBBB" stroke-width="1"/>
  <line x1="480" y1="1200" x2="80" y2="1380" stroke="#BBBBBB" stroke-width="1"/>
  <text x="280" y="1300" font-family="Arial" font-size="11" fill="#888888" text-anchor="middle">IMAGE</text>
  <circle cx="120" cy="1360" r="25" fill="#888888"/>
  <text x="120" y="1365" font-family="Arial" font-size="9" fill="#FFFFFF" text-anchor="middle">ICON</text>
  <text x="100" y="1420" font-family="Arial" font-size="12" fill="#333333">SERVICE 1</text>
  <rect x="100" y="1440" width="350" height="10" fill="#DDDDDD"/>
  <rect x="100" y="1460" width="300" height="10" fill="#DDDDDD"/>

  <rect x="520" y="1200" width="400" height="360" fill="#E8E8E8" stroke="#CCCCCC"/>
  <rect x="520" y="1200" width="400" height="180" fill="#D0D0D0"/>
  <line x1="520" y1="1200" x2="920" y2="1380" stroke="#BBBBBB" stroke-width="1"/>
  <line x1="920" y1="1200" x2="520" y2="1380" stroke="#BBBBBB" stroke-width="1"/>
  <text x="720" y="1300" font-family="Arial" font-size="11" fill="#888888" text-anchor="middle">IMAGE</text>
  <circle cx="560" cy="1360" r="25" fill="#888888"/>
  <text x="560" y="1365" font-family="Arial" font-size="9" fill="#FFFFFF" text-anchor="middle">ICON</text>
  <text x="540" y="1420" font-family="Arial" font-size="12" fill="#333333">SERVICE 2</text>
  <rect x="540" y="1440" width="350" height="10" fill="#DDDDDD"/>
  <rect x="540" y="1460" width="300" height="10" fill="#DDDDDD"/>

  <rect x="960" y="1200" width="400" height="360" fill="#E8E8E8" stroke="#CCCCCC"/>
  <rect x="960" y="1200" width="400" height="180" fill="#D0D0D0"/>
  <line x1="960" y1="1200" x2="1360" y2="1380" stroke="#BBBBBB" stroke-width="1"/>
  <line x1="1360" y1="1200" x2="960" y2="1380" stroke="#BBBBBB" stroke-width="1"/>
  <text x="1160" y="1300" font-family="Arial" font-size="11" fill="#888888" text-anchor="middle">IMAGE</text>
  <circle cx="1000" cy="1360" r="25" fill="#888888"/>
  <text x="1000" y="1365" font-family="Arial" font-size="9" fill="#FFFFFF" text-anchor="middle">ICON</text>
  <text x="980" y="1420" font-family="Arial" font-size="12" fill="#333333">SERVICE 3</text>
  <rect x="980" y="1440" width="350" height="10" fill="#DDDDDD"/>
  <rect x="980" y="1460" width="300" height="10" fill="#DDDDDD"/>

  <!-- TÉMOIGNAGES -->
  <rect x="0" y="1600" width="1440" height="350" fill="#E8E8E8" stroke="#CCCCCC"/>
  <text x="720" y="1640" font-family="Arial" font-size="12" fill="#666666" text-anchor="middle">TÉMOIGNAGES</text>
  
  <rect x="200" y="1680" width="450" height="240" fill="#FFFFFF" stroke="#CCCCCC"/>
  <text x="220" y="1720" font-family="Arial" font-size="10" fill="#888888">★ ★ ★ ★ ★</text>
  <rect x="220" y="1740" width="380" height="10" fill="#EEEEEE"/>
  <rect x="220" y="1760" width="350" height="10" fill="#EEEEEE"/>
  <rect x="220" y="1780" width="300" height="10" fill="#EEEEEE"/>
  <circle cx="260" cy="1860" r="25" fill="#E0E0E0"/>
  <rect x="300" y="1845" width="150" height="12" fill="#DDDDDD"/>
  <rect x="300" y="1865" width="100" height="10" fill="#EEEEEE"/>

  <rect x="790" y="1680" width="450" height="240" fill="#FFFFFF" stroke="#CCCCCC"/>
  <text x="810" y="1720" font-family="Arial" font-size="10" fill="#888888">★ ★ ★ ★ ★</text>
  <rect x="810" y="1740" width="380" height="10" fill="#EEEEEE"/>
  <rect x="810" y="1760" width="350" height="10" fill="#EEEEEE"/>
  <rect x="810" y="1780" width="300" height="10" fill="#EEEEEE"/>
  <circle cx="850" cy="1860" r="25" fill="#E0E0E0"/>
  <rect x="890" y="1845" width="150" height="12" fill="#DDDDDD"/>
  <rect x="890" y="1865" width="100" height="10" fill="#EEEEEE"/>

  <!-- CTA SECTION -->
  <rect x="0" y="1950" width="1440" height="200" fill="#4A4A4A" stroke="#333333"/>
  <text x="720" y="2020" font-family="Arial" font-size="14" fill="#FFFFFF" text-anchor="middle">APPEL À L'ACTION</text>
  <rect x="620" y="2040" width="200" height="10" fill="#666666"/>
  <rect x="520" y="2080" width="180" height="50" fill="#888888"/>
  <text x="610" y="2110" font-family="Arial" font-size="10" fill="#333333" text-anchor="middle">BOUTON CTA</text>
  <rect x="740" y="2080" width="180" height="50" fill="none" stroke="#888888"/>
  <text x="830" y="2110" font-family="Arial" font-size="10" fill="#CCCCCC" text-anchor="middle">BOUTON 2</text>

  <!-- FOOTER -->
  <rect x="0" y="2150" width="1440" height="180" fill="#333333" stroke="#222222"/>
  <text x="720" y="2180" font-family="Arial" font-size="11" fill="#AAAAAA" text-anchor="middle">FOOTER</text>
  
  <rect x="80" y="2200" width="250" height="100" fill="#444444"/>
  <text x="205" y="2255" font-family="Arial" font-size="10" fill="#AAAAAA" text-anchor="middle">LOGO + INFO</text>
  
  <rect x="400" y="2200" width="200" height="100" fill="#444444"/>
  <text x="500" y="2255" font-family="Arial" font-size="10" fill="#AAAAAA" text-anchor="middle">LIENS</text>
  
  <rect x="680" y="2200" width="200" height="100" fill="#444444"/>
  <text x="780" y="2255" font-family="Arial" font-size="10" fill="#AAAAAA" text-anchor="middle">SERVICES</text>
  
  <rect x="960" y="2200" width="250" height="100" fill="#444444"/>
  <text x="1085" y="2255" font-family="Arial" font-size="10" fill="#AAAAAA" text-anchor="middle">CONTACT</text>
</svg>
