<svg width="375" height="2200" viewBox="0 0 375 2200" fill="none" xmlns="http://www.w3.org/2000/svg">
  <!-- HEADER MOBILE -->
  <rect x="0" y="0" width="375" height="60" fill="#F0F0F0" stroke="#CCCCCC"/>
  <rect x="20" y="15" width="100" height="30" fill="#FFFFFF" stroke="#AAAAAA"/>
  <text x="70" y="35" font-family="Arial" font-size="10" fill="#666666" text-anchor="middle">LOGO</text>
  <rect x="320" y="15" width="35" height="30" fill="#FFFFFF" stroke="#AAAAAA"/>
  <text x="337" y="35" font-family="Arial" font-size="14" fill="#666666" text-anchor="middle">☰</text>

  <!-- HERO MOBILE -->
  <rect x="0" y="60" width="375" height="480" fill="#4A4A4A" stroke="#333333"/>
  <text x="187" y="80" font-family="Arial" font-size="10" fill="#FFFFFF" text-anchor="middle">HERO SECTION</text>
  
  <rect x="20" y="100" width="335" height="160" fill="#E0E0E0" stroke="#AAAAAA"/>
  <line x1="20" y1="100" x2="355" y2="260" stroke="#BBBBBB" stroke-width="1"/>
  <line x1="355" y1="100" x2="20" y2="260" stroke="#BBBBBB" stroke-width="1"/>
  <text x="187" y="185" font-family="Arial" font-size="11" fill="#888888" text-anchor="middle">IMAGE</text>

  <text x="20" y="300" font-family="Arial" font-size="12" fill="#DDDDDD">TITRE PRINCIPAL</text>
  <rect x="20" y="315" width="300" height="10" fill="#777777"/>
  <rect x="20" y="335" width="250" height="10" fill="#777777"/>
  <rect x="20" y="365" width="335" height="10" fill="#666666"/>
  <rect x="20" y="385" width="300" height="10" fill="#666666"/>
  
  <rect x="20" y="420" width="335" height="50" fill="#888888"/>
  <text x="187" y="450" font-family="Arial" font-size="10" fill="#FFFFFF" text-anchor="middle">BOUTON CTA</text>

  <!-- À PROPOS MOBILE -->
  <rect x="0" y="540" width="375" height="300" fill="#F5F5F5" stroke="#CCCCCC"/>
  <text x="187" y="580" font-family="Arial" font-size="11" fill="#666666" text-anchor="middle">PRÉSENTATION</text>
  
  <rect x="20" y="600" width="335" height="10" fill="#DDDDDD"/>
  <rect x="20" y="620" width="300" height="10" fill="#DDDDDD"/>
  <rect x="20" y="640" width="280" height="10" fill="#DDDDDD"/>
  <rect x="20" y="660" width="320" height="10" fill="#DDDDDD"/>
  
  <rect x="80" y="700" width="215" height="50" fill="#666666"/>
  <text x="187" y="730" font-family="Arial" font-size="10" fill="#FFFFFF" text-anchor="middle">BOUTON</text>

  <!-- SERVICES MOBILE -->
  <rect x="0" y="840" width="375" height="580" fill="#FFFFFF" stroke="#CCCCCC"/>
  <text x="187" y="880" font-family="Arial" font-size="11" fill="#666666" text-anchor="middle">NOS SERVICES</text>

  <rect x="20" y="910" width="335" height="160" fill="#E8E8E8" stroke="#CCCCCC"/>
  <circle cx="50" cy="950" r="20" fill="#888888"/>
  <text x="50" y="955" font-family="Arial" font-size="8" fill="#FFFFFF" text-anchor="middle">ICON</text>
  <text x="85" y="950" font-family="Arial" font-size="11" fill="#333333">SERVICE 1</text>
  <rect x="40" y="980" width="280" height="8" fill="#DDDDDD"/>
  <rect x="40" y="995" width="250" height="8" fill="#DDDDDD"/>

  <rect x="20" y="1090" width="335" height="160" fill="#E8E8E8" stroke="#CCCCCC"/>
  <circle cx="50" cy="1130" r="20" fill="#888888"/>
  <text x="50" y="1135" font-family="Arial" font-size="8" fill="#FFFFFF" text-anchor="middle">ICON</text>
  <text x="85" y="1130" font-family="Arial" font-size="11" fill="#333333">SERVICE 2</text>
  <rect x="40" y="1160" width="280" height="8" fill="#DDDDDD"/>
  <rect x="40" y="1175" width="250" height="8" fill="#DDDDDD"/>

  <rect x="20" y="1270" width="335" height="160" fill="#E8E8E8" stroke="#CCCCCC"/>
  <circle cx="50" cy="1310" r="20" fill="#888888"/>
  <text x="50" y="1315" font-family="Arial" font-size="8" fill="#FFFFFF" text-anchor="middle">ICON</text>
  <text x="85" y="1310" font-family="Arial" font-size="11" fill="#333333">SERVICE 3</text>
  <rect x="40" y="1340" width="280" height="8" fill="#DDDDDD"/>
  <rect x="40" y="1355" width="250" height="8" fill="#DDDDDD"/>

  <!-- CTA MOBILE -->
  <rect x="0" y="1420" width="375" height="180" fill="#4A4A4A" stroke="#333333"/>
  <text x="187" y="1480" font-family="Arial" font-size="11" fill="#FFFFFF" text-anchor="middle">APPEL À L'ACTION</text>
  <rect x="60" y="1510" width="255" height="50" fill="#888888"/>
  <text x="187" y="1540" font-family="Arial" font-size="10" fill="#333333" text-anchor="middle">BOUTON CTA</text>

  <!-- FOOTER MOBILE -->
  <rect x="0" y="1600" width="375" height="250" fill="#333333" stroke="#222222"/>
  <text x="187" y="1640" font-family="Arial" font-size="11" fill="#AAAAAA" text-anchor="middle">FOOTER</text>
  
  <rect x="20" y="1660" width="335" height="60" fill="#444444"/>
  <text x="187" y="1695" font-family="Arial" font-size="10" fill="#AAAAAA" text-anchor="middle">LOGO + INFO</text>
  
  <circle cx="150" cy="1760" r="20" fill="#555555"/>
  <circle cx="187" cy="1760" r="20" fill="#555555"/>
  <circle cx="224" cy="1760" r="20" fill="#555555"/>
  
  <rect x="60" y="1800" width="255" height="30" fill="#444444"/>
  <text x="187" y="1820" font-family="Arial" font-size="9" fill="#AAAAAA" text-anchor="middle">CONTACT</text>
</svg>
