<svg width="1440" height="2800" viewBox="0 0 1440 2800" fill="none" xmlns="http://www.w3.org/2000/svg">
  <!-- HEADER -->
  <rect x="0" y="0" width="1440" height="80" fill="#FFFFFF" stroke="#E0E0E0"/>
  <rect x="80" y="25" width="150" height="30" fill="#F0F0F0" stroke="#CCCCCC"/>
  <text x="155" y="45" font-family="Arial" font-size="12" fill="#333333" text-anchor="middle">Logo Innov'Events</text>
  
  <rect x="500" y="30" width="60" height="20" fill="#F5F5F5"/>
  <text x="530" y="44" font-family="Arial" font-size="10" fill="#666666" text-anchor="middle">Accueil</text>
  <rect x="580" y="30" width="80" height="20" fill="#F5F5F5"/>
  <text x="620" y="44" font-family="Arial" font-size="10" fill="#666666" text-anchor="middle">Événements</text>
  <rect x="680" y="30" width="40" height="20" fill="#F5F5F5"/>
  <text x="700" y="44" font-family="Arial" font-size="10" fill="#666666" text-anchor="middle">Avis</text>
  <rect x="740" y="30" width="60" height="20" fill="#F5F5F5"/>
  <text x="770" y="44" font-family="Arial" font-size="10" fill="#666666" text-anchor="middle">Devis</text>
  <rect x="820" y="30" width="60" height="20" fill="#F5F5F5"/>
  <text x="850" y="44" font-family="Arial" font-size="10" fill="#666666" text-anchor="middle">Contact</text>
  
  <rect x="1250" y="22" width="130" height="36" rx="4" fill="#333333"/>
  <text x="1315" y="45" font-family="Arial" font-size="11" fill="#FFFFFF" text-anchor="middle">Connexion</text>

  <!-- HERO SECTION -->
  <rect x="0" y="80" width="1440" height="520" fill="#E8E8E8" stroke="#CCCCCC"/>
  
  <!-- Hero Left -->
  <rect x="60" y="130" width="180" height="28" rx="14" fill="#D0D0D0"/>
  <text x="150" y="149" font-family="Arial" font-size="10" fill="#666666" text-anchor="middle">Badge: Agence premium</text>
  
  <rect x="60" y="180" width="500" height="30" fill="#C0C0C0"/>
  <text x="60" y="200" font-family="Arial" font-size="11" fill="#444444">Titre principal: Créateurs d'événements</text>
  <rect x="60" y="220" width="350" height="30" fill="#C0C0C0"/>
  <text x="60" y="240" font-family="Arial" font-size="11" fill="#444444">exceptionnels</text>
  
  <rect x="60" y="280" width="480" height="12" fill="#D8D8D8"/>
  <rect x="60" y="300" width="420" height="12" fill="#D8D8D8"/>
  <text x="60" y="330" font-family="Arial" font-size="9" fill="#888888">Description / sous-titre</text>
  
  <rect x="60" y="360" width="200" height="50" rx="4" fill="#555555"/>
  <text x="160" y="390" font-family="Arial" font-size="11" fill="#FFFFFF" text-anchor="middle">Bouton CTA Principal</text>
  
  <rect x="280" y="360" width="180" height="50" rx="4" fill="#FFFFFF" stroke="#999999"/>
  <text x="370" y="390" font-family="Arial" font-size="11" fill="#555555" text-anchor="middle">Bouton Secondaire</text>
  
  <rect x="60" y="450" width="400" height="1" fill="#AAAAAA"/>
  <rect x="60" y="470" width="250" height="40" fill="#E0E0E0"/>
  <text x="185" y="495" font-family="Arial" font-size="9" fill="#666666" text-anchor="middle">Trust badges: +200 clients</text>

  <!-- Hero Right - Image Card -->
  <rect x="750" y="120" width="600" height="420" rx="12" fill="#FFFFFF" stroke="#CCCCCC" transform="rotate(2 1050 330)"/>
  <rect x="770" y="140" width="560" height="280" fill="#E0E0E0" stroke="#BBBBBB"/>
  <line x1="770" y1="140" x2="1330" y2="420" stroke="#CCCCCC" stroke-width="1"/>
  <line x1="1330" y1="140" x2="770" y2="420" stroke="#CCCCCC" stroke-width="1"/>
  <text x="1050" y="290" font-family="Arial" font-size="12" fill="#999999" text-anchor="middle">IMAGE ÉVÉNEMENT</text>
  
  <rect x="790" y="440" width="200" height="14" fill="#D0D0D0"/>
  <text x="790" y="475" font-family="Arial" font-size="10" fill="#666666">Prochain événement</text>
  <rect x="790" y="485" width="300" height="10" fill="#E8E8E8"/>
  
  <!-- Rating Badge -->
  <rect x="720" y="480" width="100" height="70" rx="8" fill="#D0D0D0" stroke="#BBBBBB"/>
  <text x="770" y="515" font-family="Arial" font-size="12" fill="#444444" text-anchor="middle">★ 4.9/5</text>
  <text x="770" y="535" font-family="Arial" font-size="9" fill="#666666" text-anchor="middle">Note moyenne</text>

  <!-- STATS SECTION -->
  <rect x="0" y="600" width="1440" height="100" fill="#FFFFFF" stroke="#E0E0E0"/>
  <rect x="100" y="620" width="1240" height="60" rx="8" fill="#F5F5F5" stroke="#E0E0E0"/>
  
  <rect x="180" y="635" width="80" height="20" fill="#D0D0D0"/>
  <text x="220" y="670" font-family="Arial" font-size="9" fill="#666666" text-anchor="middle">Stat 1: 150+</text>
  
  <rect x="420" y="635" width="80" height="20" fill="#D0D0D0"/>
  <text x="460" y="670" font-family="Arial" font-size="9" fill="#666666" text-anchor="middle">Stat 2: 98%</text>
  
  <rect x="660" y="635" width="80" height="20" fill="#D0D0D0"/>
  <text x="700" y="670" font-family="Arial" font-size="9" fill="#666666" text-anchor="middle">Stat 3: 50+</text>
  
  <rect x="900" y="635" width="80" height="20" fill="#D0D0D0"/>
  <text x="940" y="670" font-family="Arial" font-size="9" fill="#666666" text-anchor="middle">Stat 4: 5 ans</text>

  <!-- À PROPOS SECTION -->
  <rect x="0" y="700" width="1440" height="420" fill="#F5F5F5" stroke="#E0E0E0"/>
  
  <!-- Image gauche -->
  <rect x="100" y="740" width="540" height="340" rx="12" fill="#E0E0E0" stroke="#CCCCCC"/>
  <line x1="100" y1="740" x2="640" y2="1080" stroke="#BBBBBB" stroke-width="1"/>
  <line x1="640" y1="740" x2="100" y2="1080" stroke="#BBBBBB" stroke-width="1"/>
  <text x="370" y="920" font-family="Arial" font-size="12" fill="#999999" text-anchor="middle">IMAGE ÉQUIPE</text>
  
  <!-- Badge années -->
  <rect x="540" y="1000" width="110" height="80" rx="8" fill="#555555"/>
  <text x="595" y="1040" font-family="Arial" font-size="16" fill="#FFFFFF" text-anchor="middle">5+</text>
  <text x="595" y="1060" font-family="Arial" font-size="9" fill="#CCCCCC" text-anchor="middle">Années</text>
  
  <!-- Texte droite -->
  <rect x="700" y="760" width="120" height="14" fill="#D0D0D0"/>
  <text x="700" y="795" font-family="Arial" font-size="9" fill="#888888">Label: À propos</text>
  
  <rect x="700" y="810" width="400" height="24" fill="#C0C0C0"/>
  <rect x="700" y="840" width="350" height="24" fill="#C0C0C0"/>
  <text x="700" y="885" font-family="Arial" font-size="10" fill="#666666">Titre section</text>
  
  <rect x="700" y="900" width="500" height="10" fill="#E0E0E0"/>
  <rect x="700" y="918" width="480" height="10" fill="#E0E0E0"/>
  <rect x="700" y="936" width="450" height="10" fill="#E0E0E0"/>
  <text x="700" y="965" font-family="Arial" font-size="9" fill="#888888">Paragraphe description</text>
  
  <rect x="720" y="980" width="200" height="12" fill="#E8E8E8"/>
  <rect x="720" y="1000" width="180" height="12" fill="#E8E8E8"/>
  <rect x="720" y="1020" width="160" height="12" fill="#E8E8E8"/>
  <rect x="720" y="1040" width="170" height="12" fill="#E8E8E8"/>
  <text x="720" y="1070" font-family="Arial" font-size="9" fill="#888888">Liste avantages</text>
  
  <rect x="700" y="1080" width="160" height="40" rx="4" fill="#555555"/>
  <text x="780" y="1105" font-family="Arial" font-size="10" fill="#FFFFFF" text-anchor="middle">Bouton CTA</text>

  <!-- NOS SERVICES SECTION -->
  <rect x="0" y="1120" width="1440" height="480" fill="#FFFFFF" stroke="#E0E0E0"/>
  
  <rect x="680" y="1150" width="80" height="12" fill="#D0D0D0"/>
  <text x="720" y="1180" font-family="Arial" font-size="9" fill="#888888" text-anchor="middle">Label section</text>
  <rect x="620" y="1190" width="200" height="24" fill="#C0C0C0"/>
  <text x="720" y="1230" font-family="Arial" font-size="11" fill="#555555" text-anchor="middle">Titre: Nos Services</text>
  <rect x="680" y="1240" width="80" height="4" fill="#999999"/>

  <!-- Service Cards -->
  <rect x="100" y="1280" width="380" height="300" rx="12" fill="#F5F5F5" stroke="#E0E0E0"/>
  <rect x="100" y="1280" width="380" height="160" fill="#E0E0E0" stroke="#CCCCCC"/>
  <line x1="100" y1="1280" x2="480" y2="1440" stroke="#CCCCCC" stroke-width="1"/>
  <line x1="480" y1="1280" x2="100" y2="1440" stroke="#CCCCCC" stroke-width="1"/>
  <text x="290" y="1370" font-family="Arial" font-size="10" fill="#999999" text-anchor="middle">IMAGE SERVICE</text>
  <circle cx="145" cy="1420" r="24" fill="#D0D0D0" stroke="#BBBBBB"/>
  <text x="145" y="1425" font-family="Arial" font-size="8" fill="#666666" text-anchor="middle">ICON</text>
  <rect x="120" y="1470" width="150" height="16" fill="#C0C0C0"/>
  <text x="120" y="1505" font-family="Arial" font-size="10" fill="#555555">Séminaires</text>
  <rect x="120" y="1515" width="300" height="8" fill="#E0E0E0"/>
  <rect x="120" y="1530" width="280" height="8" fill="#E0E0E0"/>
  <text x="120" y="1565" font-family="Arial" font-size="9" fill="#888888">Lien: Demander un devis →</text>

  <rect x="530" y="1280" width="380" height="300" rx="12" fill="#F5F5F5" stroke="#E0E0E0"/>
  <rect x="530" y="1280" width="380" height="160" fill="#E0E0E0" stroke="#CCCCCC"/>
  <line x1="530" y1="1280" x2="910" y2="1440" stroke="#CCCCCC" stroke-width="1"/>
  <line x1="910" y1="1280" x2="530" y2="1440" stroke="#CCCCCC" stroke-width="1"/>
  <text x="720" y="1370" font-family="Arial" font-size="10" fill="#999999" text-anchor="middle">IMAGE SERVICE</text>
  <circle cx="575" cy="1420" r="24" fill="#D0D0D0" stroke="#BBBBBB"/>
  <text x="575" y="1425" font-family="Arial" font-size="8" fill="#666666" text-anchor="middle">ICON</text>
  <rect x="550" y="1470" width="150" height="16" fill="#C0C0C0"/>
  <text x="550" y="1505" font-family="Arial" font-size="10" fill="#555555">Conférences</text>
  <rect x="550" y="1515" width="300" height="8" fill="#E0E0E0"/>
  <rect x="550" y="1530" width="280" height="8" fill="#E0E0E0"/>
  <text x="550" y="1565" font-family="Arial" font-size="9" fill="#888888">Lien: Demander un devis →</text>

  <rect x="960" y="1280" width="380" height="300" rx="12" fill="#F5F5F5" stroke="#E0E0E0"/>
  <rect x="960" y="1280" width="380" height="160" fill="#E0E0E0" stroke="#CCCCCC"/>
  <line x1="960" y1="1280" x2="1340" y2="1440" stroke="#CCCCCC" stroke-width="1"/>
  <line x1="1340" y1="1280" x2="960" y2="1440" stroke="#CCCCCC" stroke-width="1"/>
  <text x="1150" y="1370" font-family="Arial" font-size="10" fill="#999999" text-anchor="middle">IMAGE SERVICE</text>
  <circle cx="1005" cy="1420" r="24" fill="#D0D0D0" stroke="#BBBBBB"/>
  <text x="1005" y="1425" font-family="Arial" font-size="8" fill="#666666" text-anchor="middle">ICON</text>
  <rect x="980" y="1470" width="150" height="16" fill="#C0C0C0"/>
  <text x="980" y="1505" font-family="Arial" font-size="10" fill="#555555">Soirées</text>
  <rect x="980" y="1515" width="300" height="8" fill="#E0E0E0"/>
  <rect x="980" y="1530" width="280" height="8" fill="#E0E0E0"/>
  <text x="980" y="1565" font-family="Arial" font-size="9" fill="#888888">Lien: Demander un devis →</text>

  <!-- TÉMOIGNAGES SECTION -->
  <rect x="0" y="1600" width="1440" height="360" fill="#F0F0F0" stroke="#E0E0E0"/>
  
  <rect x="680" y="1630" width="80" height="12" fill="#D0D0D0"/>
  <text x="720" y="1660" font-family="Arial" font-size="9" fill="#888888" text-anchor="middle">Label section</text>
  <rect x="580" y="1670" width="280" height="24" fill="#C0C0C0"/>
  <text x="720" y="1710" font-family="Arial" font-size="11" fill="#555555" text-anchor="middle">Titre: Ce que disent nos clients</text>

  <!-- Testimonial Cards -->
  <rect x="220" y="1740" width="420" height="200" rx="12" fill="#FFFFFF" stroke="#E0E0E0"/>
  <rect x="240" y="1765" width="100" height="12" fill="#D0D0D0"/>
  <text x="240" y="1800" font-family="Arial" font-size="9" fill="#888888">★★★★★ Notes</text>
  <rect x="240" y="1810" width="360" height="8" fill="#E8E8E8"/>
  <rect x="240" y="1825" width="340" height="8" fill="#E8E8E8"/>
  <rect x="240" y="1840" width="300" height="8" fill="#E8E8E8"/>
  <text x="240" y="1870" font-family="Arial" font-size="9" fill="#888888">"Citation témoignage"</text>
  <circle cx="270" cy="1905" r="20" fill="#E0E0E0"/>
  <rect x="300" y="1895" width="100" height="10" fill="#D0D0D0"/>
  <rect x="300" y="1912" width="80" height="8" fill="#E8E8E8"/>
  <text x="300" y="1935" font-family="Arial" font-size="8" fill="#888888">Nom + Entreprise</text>

  <rect x="800" y="1740" width="420" height="200" rx="12" fill="#FFFFFF" stroke="#E0E0E0"/>
  <rect x="820" y="1765" width="100" height="12" fill="#D0D0D0"/>
  <text x="820" y="1800" font-family="Arial" font-size="9" fill="#888888">★★★★★ Notes</text>
  <rect x="820" y="1810" width="360" height="8" fill="#E8E8E8"/>
  <rect x="820" y="1825" width="340" height="8" fill="#E8E8E8"/>
  <rect x="820" y="1840" width="300" height="8" fill="#E8E8E8"/>
  <text x="820" y="1870" font-family="Arial" font-size="9" fill="#888888">"Citation témoignage"</text>
  <circle cx="850" cy="1905" r="20" fill="#E0E0E0"/>
  <rect x="880" y="1895" width="100" height="10" fill="#D0D0D0"/>
  <rect x="880" y="1912" width="80" height="8" fill="#E8E8E8"/>
  <text x="880" y="1935" font-family="Arial" font-size="8" fill="#888888">Nom + Entreprise</text>

  <!-- CTA SECTION -->
  <rect x="0" y="1960" width="1440" height="200" fill="#555555"/>
  
  <rect x="520" y="2010" width="400" height="28" fill="#444444"/>
  <text x="720" y="2030" font-family="Arial" font-size="12" fill="#FFFFFF" text-anchor="middle">Titre: Prêt à créer votre événement ?</text>
  <rect x="560" y="2050" width="320" height="12" fill="#666666"/>
  <text x="720" y="2080" font-family="Arial" font-size="9" fill="#CCCCCC" text-anchor="middle">Description CTA</text>
  
  <rect x="520" y="2100" width="180" height="45" rx="4" fill="#888888"/>
  <text x="610" y="2128" font-family="Arial" font-size="10" fill="#FFFFFF" text-anchor="middle">Bouton CTA 1</text>
  
  <rect x="720" y="2100" width="160" height="45" rx="4" fill="none" stroke="#AAAAAA"/>
  <text x="800" y="2128" font-family="Arial" font-size="10" fill="#CCCCCC" text-anchor="middle">Bouton CTA 2</text>

  <!-- FOOTER -->
  <rect x="0" y="2160" width="1440" height="160" fill="#333333"/>
  
  <rect x="100" y="2195" width="120" height="16" fill="#555555"/>
  <text x="100" y="2230" font-family="Arial" font-size="9" fill="#AAAAAA">Logo + description</text>
  <rect x="100" y="2240" width="200" height="8" fill="#444444"/>
  <rect x="100" y="2255" width="180" height="8" fill="#444444"/>
  
  <rect x="450" y="2195" width="80" height="12" fill="#555555"/>
  <text x="450" y="2225" font-family="Arial" font-size="9" fill="#AAAAAA">Navigation</text>
  <rect x="450" y="2235" width="60" height="8" fill="#444444"/>
  <rect x="450" y="2250" width="70" height="8" fill="#444444"/>
  <rect x="450" y="2265" width="50" height="8" fill="#444444"/>
  
  <rect x="700" y="2195" width="80" height="12" fill="#555555"/>
  <text x="700" y="2225" font-family="Arial" font-size="9" fill="#AAAAAA">Contact</text>
  <rect x="700" y="2235" width="150" height="8" fill="#444444"/>
  <rect x="700" y="2250" width="100" height="8" fill="#444444"/>
  <rect x="700" y="2265" width="120" height="8" fill="#444444"/>
  
  <rect x="0" y="2290" width="1440" height="30" fill="#222222"/>
  <text x="720" y="2310" font-family="Arial" font-size="9" fill="#666666" text-anchor="middle">© 2026 Innov'Events - Mentions légales</text>
</svg>
