<svg width="1440" height="1200" viewBox="0 0 1440 1200" fill="none" xmlns="http://www.w3.org/2000/svg">
  <!-- HEADER -->
  <rect x="0" y="0" width="1440" height="80" fill="#F5F5F5" stroke="#CCCCCC"/>
  <rect x="40" y="20" width="120" height="40" fill="#FFFFFF" stroke="#999999"/>
  <text x="100" y="45" font-family="Arial" font-size="12" fill="#666666" text-anchor="middle">LOGO</text>
  <rect x="400" y="20" width="600" height="40" fill="#FFFFFF" stroke="#999999"/>
  <text x="700" y="45" font-family="Arial" font-size="12" fill="#666666" text-anchor="middle">NAVIGATION</text>
  <rect x="1200" y="20" width="200" height="40" fill="#666666"/>
  <text x="1300" y="45" font-family="Arial" font-size="12" fill="#FFFFFF" text-anchor="middle">BOUTON CTA</text>

  <!-- HERO CONTACT -->
  <rect x="0" y="80" width="1440" height="180" fill="#E0E0E0" stroke="#CCCCCC"/>
  <text x="720" y="140" font-family="Arial" font-size="18" fill="#666666" text-anchor="middle">TITRE PAGE: CONTACTEZ-NOUS</text>
  <rect x="520" y="160" width="400" height="12" fill="#CCCCCC"/>
  <text x="720" y="195" font-family="Arial" font-size="10" fill="#888888" text-anchor="middle">Sous-titre / Description</text>

  <!-- CONTENU PRINCIPAL -->
  <rect x="0" y="260" width="1440" height="700" fill="#F5F5F5" stroke="#CCCCCC"/>
  
  <!-- Colonne gauche - Infos contact -->
  <rect x="80" y="300" width="400" height="600" fill="#FFFFFF" stroke="#CCCCCC"/>
  <text x="280" y="340" font-family="Arial" font-size="14" fill="#666666" text-anchor="middle">COORDONNÉES</text>
  
  <rect x="100" y="370" width="360" height="80" fill="#F0F0F0" stroke="#DDDDDD"/>
  <circle cx="140" cy="410" r="25" fill="#E0E0E0"/>
  <text x="140" y="415" font-family="Arial" font-size="8" fill="#888888" text-anchor="middle">ICON</text>
  <rect x="180" y="390" width="100" height="12" fill="#CCCCCC"/>
  <rect x="180" y="410" width="150" height="10" fill="#E0E0E0"/>
  <text x="180" y="445" font-family="Arial" font-size="9" fill="#888888">Email</text>

  <rect x="100" y="470" width="360" height="80" fill="#F0F0F0" stroke="#DDDDDD"/>
  <circle cx="140" cy="510" r="25" fill="#E0E0E0"/>
  <text x="140" y="515" font-family="Arial" font-size="8" fill="#888888" text-anchor="middle">ICON</text>
  <rect x="180" y="490" width="100" height="12" fill="#CCCCCC"/>
  <rect x="180" y="510" width="120" height="10" fill="#E0E0E0"/>
  <text x="180" y="545" font-family="Arial" font-size="9" fill="#888888">Téléphone</text>

  <rect x="100" y="570" width="360" height="80" fill="#F0F0F0" stroke="#DDDDDD"/>
  <circle cx="140" cy="610" r="25" fill="#E0E0E0"/>
  <text x="140" y="615" font-family="Arial" font-size="8" fill="#888888" text-anchor="middle">ICON</text>
  <rect x="180" y="590" width="100" height="12" fill="#CCCCCC"/>
  <rect x="180" y="610" width="180" height="10" fill="#E0E0E0"/>
  <text x="180" y="645" font-family="Arial" font-size="9" fill="#888888">Adresse</text>

  <rect x="100" y="670" width="360" height="80" fill="#F0F0F0" stroke="#DDDDDD"/>
  <circle cx="140" cy="710" r="25" fill="#E0E0E0"/>
  <text x="140" y="715" font-family="Arial" font-size="8" fill="#888888" text-anchor="middle">ICON</text>
  <rect x="180" y="690" width="100" height="12" fill="#CCCCCC"/>
  <rect x="180" y="710" width="140" height="10" fill="#E0E0E0"/>
  <text x="180" y="745" font-family="Arial" font-size="9" fill="#888888">Horaires</text>

  <!-- Colonne droite - Formulaire -->
  <rect x="540" y="300" width="820" height="600" fill="#FFFFFF" stroke="#CCCCCC"/>
  <text x="950" y="340" font-family="Arial" font-size="14" fill="#666666" text-anchor="middle">FORMULAIRE DE CONTACT</text>
  
  <rect x="580" y="370" width="350" height="60" fill="#F8F8F8" stroke="#DDDDDD"/>
  <text x="600" y="395" font-family="Arial" font-size="10" fill="#888888">Nom (facultatif)</text>
  
  <rect x="960" y="370" width="350" height="60" fill="#F8F8F8" stroke="#DDDDDD"/>
  <text x="980" y="395" font-family="Arial" font-size="10" fill="#888888">Email *</text>
  
  <rect x="580" y="460" width="730" height="60" fill="#F8F8F8" stroke="#DDDDDD"/>
  <text x="600" y="485" font-family="Arial" font-size="10" fill="#888888">Sujet *</text>
  
  <rect x="580" y="550" width="730" height="180" fill="#F8F8F8" stroke="#DDDDDD"/>
  <text x="600" y="575" font-family="Arial" font-size="10" fill="#888888">Message *</text>
  
  <rect x="580" y="760" width="200" height="50" fill="#666666"/>
  <text x="680" y="790" font-family="Arial" font-size="11" fill="#FFFFFF" text-anchor="middle">ENVOYER</text>

  <!-- FOOTER -->
  <rect x="0" y="960" width="1440" height="160" fill="#555555" stroke="#444444"/>
  <text x="720" y="1000" font-family="Arial" font-size="12" fill="#FFFFFF" text-anchor="middle">FOOTER</text>
  <rect x="100" y="1030" width="250" height="80" fill="#666666"/>
  <text x="225" y="1075" font-family="Arial" font-size="10" fill="#CCCCCC" text-anchor="middle">LOGO + INFO</text>
  <rect x="450" y="1030" width="200" height="80" fill="#666666"/>
  <text x="550" y="1075" font-family="Arial" font-size="10" fill="#CCCCCC" text-anchor="middle">LIENS</text>
  <rect x="750" y="1030" width="200" height="80" fill="#666666"/>
  <text x="850" y="1075" font-family="Arial" font-size="10" fill="#CCCCCC" text-anchor="middle">SERVICES</text>
  <rect x="1050" y="1030" width="250" height="80" fill="#666666"/>
  <text x="1175" y="1075" font-family="Arial" font-size="10" fill="#CCCCCC" text-anchor="middle">CONTACT</text>
</svg>
