<svg width="375" height="1800" viewBox="0 0 375 1800" fill="none" xmlns="http://www.w3.org/2000/svg">
  <!-- STATUS BAR -->
  <rect x="0" y="0" width="375" height="44" fill="#555555"/>
  <text x="187" y="28" font-family="Arial" font-size="12" fill="#FFFFFF" text-anchor="middle">9:41</text>

  <!-- HEADER -->
  <rect x="0" y="44" width="375" height="60" fill="#F5F5F5" stroke="#CCCCCC"/>
  <rect x="20" y="58" width="100" height="32" fill="#FFFFFF" stroke="#999999"/>
  <text x="70" y="78" font-family="Arial" font-size="10" fill="#666666" text-anchor="middle">LOGO</text>
  <rect x="320" y="60" width="35" height="28" fill="#E0E0E0"/>
  <text x="337" y="78" font-family="Arial" font-size="12" fill="#666666" text-anchor="middle">☰</text>

  <!-- HERO -->
  <rect x="0" y="104" width="375" height="140" fill="#E0E0E0" stroke="#CCCCCC"/>
  <text x="187" y="160" font-family="Arial" font-size="14" fill="#666666" text-anchor="middle">TITRE: CONTACTEZ-NOUS</text>
  <rect x="60" y="180" width="255" height="10" fill="#CCCCCC"/>

  <!-- COORDONNÉES -->
  <rect x="0" y="244" width="375" height="400" fill="#F5F5F5" stroke="#CCCCCC"/>
  <text x="187" y="280" font-family="Arial" font-size="12" fill="#666666" text-anchor="middle">COORDONNÉES</text>
  
  <rect x="20" y="310" width="335" height="70" fill="#FFFFFF" stroke="#DDDDDD"/>
  <circle cx="55" cy="345" r="20" fill="#E0E0E0"/>
  <rect x="90" y="330" width="80" height="10" fill="#CCCCCC"/>
  <rect x="90" y="348" width="120" height="8" fill="#E0E0E0"/>

  <rect x="20" y="400" width="335" height="70" fill="#FFFFFF" stroke="#DDDDDD"/>
  <circle cx="55" cy="435" r="20" fill="#E0E0E0"/>
  <rect x="90" y="420" width="80" height="10" fill="#CCCCCC"/>
  <rect x="90" y="438" width="100" height="8" fill="#E0E0E0"/>

  <rect x="20" y="490" width="335" height="70" fill="#FFFFFF" stroke="#DDDDDD"/>
  <circle cx="55" cy="525" r="20" fill="#E0E0E0"/>
  <rect x="90" y="510" width="80" height="10" fill="#CCCCCC"/>
  <rect x="90" y="528" width="150" height="8" fill="#E0E0E0"/>

  <rect x="20" y="580" width="335" height="70" fill="#FFFFFF" stroke="#DDDDDD"/>
  <circle cx="55" cy="615" r="20" fill="#E0E0E0"/>
  <rect x="90" y="600" width="80" height="10" fill="#CCCCCC"/>
  <rect x="90" y="618" width="130" height="8" fill="#E0E0E0"/>

  <!-- FORMULAIRE -->
  <rect x="0" y="644" width="375" height="550" fill="#FFFFFF" stroke="#CCCCCC"/>
  <text x="187" y="685" font-family="Arial" font-size="12" fill="#666666" text-anchor="middle">FORMULAIRE</text>
  
  <rect x="20" y="710" width="335" height="55" fill="#F8F8F8" stroke="#DDDDDD"/>
  <text x="35" y="735" font-family="Arial" font-size="9" fill="#888888">Nom</text>

  <rect x="20" y="785" width="335" height="55" fill="#F8F8F8" stroke="#DDDDDD"/>
  <text x="35" y="810" font-family="Arial" font-size="9" fill="#888888">Email *</text>

  <rect x="20" y="860" width="335" height="55" fill="#F8F8F8" stroke="#DDDDDD"/>
  <text x="35" y="885" font-family="Arial" font-size="9" fill="#888888">Sujet *</text>

  <rect x="20" y="935" width="335" height="140" fill="#F8F8F8" stroke="#DDDDDD"/>
  <text x="35" y="960" font-family="Arial" font-size="9" fill="#888888">Message *</text>

  <rect x="20" y="1095" width="335" height="50" fill="#666666"/>
  <text x="187" y="1125" font-family="Arial" font-size="11" fill="#FFFFFF" text-anchor="middle">ENVOYER</text>

  <!-- FOOTER -->
  <rect x="0" y="1194" width="375" height="280" fill="#555555"/>
  <text x="187" y="1240" font-family="Arial" font-size="12" fill="#FFFFFF" text-anchor="middle">FOOTER</text>
  <rect x="100" y="1270" width="175" height="12" fill="#666666"/>
  <circle cx="147" cy="1330" r="18" fill="#666666"/>
  <circle cx="187" cy="1330" r="18" fill="#666666"/>
  <circle cx="227" cy="1330" r="18" fill="#666666"/>
  <rect x="100" y="1380" width="175" height="8" fill="#666666"/>
  <rect x="115" y="1400" width="145" height="8" fill="#666666"/>
</svg>
