<svg width="1440" height="1200" viewBox="0 0 1440 1200" fill="none" xmlns="http://www.w3.org/2000/svg">
  <!-- HEADER -->
  <rect x="0" y="0" width="1440" height="80" fill="#FFFFFF" stroke="#E0E0E0"/>
  <rect x="80" y="25" width="150" height="30" fill="#F0F0F0" stroke="#CCCCCC"/>
  <text x="155" y="45" font-family="Arial" font-size="12" fill="#555555" text-anchor="middle">Logo Innov'Events</text>
  
  <rect x="500" y="30" width="60" height="20" fill="#F5F5F5"/>
  <rect x="580" y="30" width="80" height="20" fill="#F5F5F5"/>
  <rect x="680" y="30" width="40" height="20" fill="#F5F5F5"/>
  <rect x="740" y="30" width="60" height="20" fill="#F5F5F5"/>
  <rect x="820" y="30" width="60" height="20" fill="#F5F5F5"/>
  
  <rect x="1250" y="22" width="130" height="36" rx="4" fill="#555555"/>
  <text x="1315" y="45" font-family="Arial" font-size="11" fill="#FFFFFF" text-anchor="middle">Connexion</text>

  <!-- HERO -->
  <rect x="0" y="80" width="1440" height="180" fill="#D0D0D0"/>
  <rect x="520" y="120" width="400" height="28" fill="#B0B0B0"/>
  <text x="720" y="140" font-family="Arial" font-size="12" fill="#555555" text-anchor="middle">Titre: Contactez-nous</text>
  <rect x="470" y="165" width="500" height="12" fill="#C0C0C0"/>
  <text x="720" y="200" font-family="Arial" font-size="10" fill="#777777" text-anchor="middle">Une question ? Un projet ? N'hésitez pas à nous contacter.</text>

  <!-- CONTENU -->
  <rect x="0" y="260" width="1440" height="700" fill="#F5F5F5"/>
  
  <!-- Colonne Coordonnées -->
  <rect x="80" y="300" width="400" height="600" fill="#FFFFFF" stroke="#E0E0E0"/>
  <rect x="100" y="320" width="150" height="18" fill="#C0C0C0"/>
  <text x="100" y="360" font-family="Arial" font-size="11" fill="#555555">Nos coordonnées</text>
  
  <!-- Email -->
  <rect x="100" y="380" width="360" height="80" fill="#F8F8F8" stroke="#E8E8E8"/>
  <circle cx="140" cy="420" r="24" fill="#E0E0E0"/>
  <text x="140" y="425" font-family="Arial" font-size="8" fill="#888888" text-anchor="middle">ICON</text>
  <rect x="180" y="405" width="80" height="12" fill="#D0D0D0"/>
  <text x="180" y="438" font-family="Arial" font-size="10" fill="#666666">Email</text>
  <rect x="180" y="445" width="160" height="10" fill="#E8E8E8"/>

  <!-- Téléphone -->
  <rect x="100" y="480" width="360" height="80" fill="#F8F8F8" stroke="#E8E8E8"/>
  <circle cx="140" cy="520" r="24" fill="#E0E0E0"/>
  <text x="140" y="525" font-family="Arial" font-size="8" fill="#888888" text-anchor="middle">ICON</text>
  <rect x="180" y="505" width="80" height="12" fill="#D0D0D0"/>
  <text x="180" y="538" font-family="Arial" font-size="10" fill="#666666">Téléphone</text>
  <rect x="180" y="545" width="120" height="10" fill="#E8E8E8"/>

  <!-- Adresse -->
  <rect x="100" y="580" width="360" height="80" fill="#F8F8F8" stroke="#E8E8E8"/>
  <circle cx="140" cy="620" r="24" fill="#E0E0E0"/>
  <text x="140" y="625" font-family="Arial" font-size="8" fill="#888888" text-anchor="middle">ICON</text>
  <rect x="180" y="605" width="80" height="12" fill="#D0D0D0"/>
  <text x="180" y="638" font-family="Arial" font-size="10" fill="#666666">Adresse</text>
  <rect x="180" y="645" width="180" height="10" fill="#E8E8E8"/>

  <!-- Horaires -->
  <rect x="100" y="680" width="360" height="80" fill="#F8F8F8" stroke="#E8E8E8"/>
  <circle cx="140" cy="720" r="24" fill="#E0E0E0"/>
  <text x="140" y="725" font-family="Arial" font-size="8" fill="#888888" text-anchor="middle">ICON</text>
  <rect x="180" y="705" width="80" height="12" fill="#D0D0D0"/>
  <text x="180" y="738" font-family="Arial" font-size="10" fill="#666666">Horaires</text>
  <rect x="180" y="745" width="150" height="10" fill="#E8E8E8"/>

  <!-- Colonne Formulaire -->
  <rect x="540" y="300" width="820" height="600" rx="12" fill="#FFFFFF" stroke="#E0E0E0"/>
  <rect x="580" y="330" width="200" height="18" fill="#C0C0C0"/>
  <text x="580" y="370" font-family="Arial" font-size="11" fill="#555555">Envoyez-nous un message</text>
  
  <!-- Champs formulaire -->
  <rect x="580" y="400" width="350" height="55" rx="4" fill="#F8F8F8" stroke="#E0E0E0"/>
  <text x="600" y="425" font-family="Arial" font-size="10" fill="#888888">Nom (facultatif)</text>
  
  <rect x="960" y="400" width="350" height="55" rx="4" fill="#F8F8F8" stroke="#E0E0E0"/>
  <text x="980" y="425" font-family="Arial" font-size="10" fill="#888888">Email *</text>
  
  <rect x="580" y="480" width="730" height="55" rx="4" fill="#F8F8F8" stroke="#E0E0E0"/>
  <text x="600" y="505" font-family="Arial" font-size="10" fill="#888888">Sujet *</text>
  
  <rect x="580" y="560" width="730" height="180" rx="4" fill="#F8F8F8" stroke="#E0E0E0"/>
  <text x="600" y="590" font-family="Arial" font-size="10" fill="#888888">Message *</text>
  
  <rect x="580" y="770" width="200" height="50" rx="4" fill="#555555"/>
  <text x="680" y="800" font-family="Arial" font-size="11" fill="#FFFFFF" text-anchor="middle">Envoyer le message</text>

  <!-- FOOTER -->
  <rect x="0" y="960" width="1440" height="160" fill="#444444"/>
  <rect x="100" y="1000" width="120" height="14" fill="#666666"/>
  <rect x="100" y="1025" width="200" height="8" fill="#555555"/>
  <rect x="100" y="1040" width="180" height="8" fill="#555555"/>
  
  <rect x="450" y="1000" width="80" height="12" fill="#666666"/>
  <rect x="450" y="1025" width="60" height="8" fill="#555555"/>
  <rect x="450" y="1040" width="70" height="8" fill="#555555"/>
  
  <rect x="700" y="1000" width="80" height="12" fill="#666666"/>
  <rect x="700" y="1025" width="150" height="8" fill="#555555"/>
  <rect x="700" y="1040" width="100" height="8" fill="#555555"/>
  
  <rect x="0" y="1090" width="1440" height="30" fill="#333333"/>
  <text x="720" y="1110" font-family="Arial" font-size="9" fill="#777777" text-anchor="middle">© 2026 Innov'Events</text>
</svg>
