<svg width="375" height="1600" viewBox="0 0 375 1600" fill="none" xmlns="http://www.w3.org/2000/svg">
  <!-- STATUS BAR -->
  <rect x="0" y="0" width="375" height="44" fill="#444444"/>
  <text x="187" y="28" font-family="Arial" font-size="12" fill="#FFFFFF" text-anchor="middle">9:41</text>

  <!-- HEADER -->
  <rect x="0" y="44" width="375" height="56" fill="#FFFFFF" stroke="#E0E0E0"/>
  <rect x="20" y="58" width="120" height="28" fill="#F0F0F0" stroke="#CCCCCC"/>
  <text x="80" y="77" font-family="Arial" font-size="10" fill="#555555" text-anchor="middle">Logo</text>
  <rect x="320" y="60" width="35" height="28" rx="4" fill="#F0F0F0"/>
  <text x="337" y="78" font-family="Arial" font-size="14" fill="#555555" text-anchor="middle">☰</text>

  <!-- HERO -->
  <rect x="0" y="100" width="375" height="140" fill="#D0D0D0"/>
  <rect x="60" y="140" width="255" height="22" fill="#B0B0B0"/>
  <text x="187" y="158" font-family="Arial" font-size="11" fill="#555555" text-anchor="middle">Titre: Contactez-nous</text>
  <rect x="40" y="180" width="295" height="10" fill="#C0C0C0"/>

  <!-- COORDONNÉES -->
  <rect x="0" y="240" width="375" height="380" fill="#F5F5F5"/>
  <rect x="100" y="270" width="175" height="16" fill="#C0C0C0"/>
  <text x="187" y="305" font-family="Arial" font-size="11" fill="#555555" text-anchor="middle">Nos coordonnées</text>
  
  <rect x="20" y="330" width="335" height="70" rx="8" fill="#FFFFFF" stroke="#E0E0E0"/>
  <circle cx="55" cy="365" r="20" fill="#E0E0E0"/>
  <rect x="90" y="350" width="60" height="10" fill="#D0D0D0"/>
  <rect x="90" y="368" width="120" height="8" fill="#E8E8E8"/>

  <rect x="20" y="420" width="335" height="70" rx="8" fill="#FFFFFF" stroke="#E0E0E0"/>
  <circle cx="55" cy="455" r="20" fill="#E0E0E0"/>
  <rect x="90" y="440" width="70" height="10" fill="#D0D0D0"/>
  <rect x="90" y="458" width="100" height="8" fill="#E8E8E8"/>

  <rect x="20" y="510" width="335" height="70" rx="8" fill="#FFFFFF" stroke="#E0E0E0"/>
  <circle cx="55" cy="545" r="20" fill="#E0E0E0"/>
  <rect x="90" y="530" width="60" height="10" fill="#D0D0D0"/>
  <rect x="90" y="548" width="150" height="8" fill="#E8E8E8"/>

  <!-- FORMULAIRE -->
  <rect x="0" y="620" width="375" height="550" fill="#FFFFFF"/>
  <rect x="100" y="650" width="175" height="16" fill="#C0C0C0"/>
  <text x="187" y="685" font-family="Arial" font-size="11" fill="#555555" text-anchor="middle">Envoyez un message</text>
  
  <rect x="20" y="710" width="335" height="50" rx="4" fill="#F8F8F8" stroke="#E0E0E0"/>
  <text x="35" y="740" font-family="Arial" font-size="9" fill="#888888">Nom</text>

  <rect x="20" y="780" width="335" height="50" rx="4" fill="#F8F8F8" stroke="#E0E0E0"/>
  <text x="35" y="810" font-family="Arial" font-size="9" fill="#888888">Email *</text>

  <rect x="20" y="850" width="335" height="50" rx="4" fill="#F8F8F8" stroke="#E0E0E0"/>
  <text x="35" y="880" font-family="Arial" font-size="9" fill="#888888">Sujet *</text>

  <rect x="20" y="920" width="335" height="130" rx="4" fill="#F8F8F8" stroke="#E0E0E0"/>
  <text x="35" y="950" font-family="Arial" font-size="9" fill="#888888">Message *</text>

  <rect x="20" y="1070" width="335" height="50" rx="4" fill="#555555"/>
  <text x="187" y="1100" font-family="Arial" font-size="11" fill="#FFFFFF" text-anchor="middle">Envoyer</text>

  <!-- FOOTER -->
  <rect x="0" y="1170" width="375" height="250" fill="#444444"/>
  <rect x="130" y="1210" width="115" height="14" fill="#555555"/>
  <rect x="100" y="1240" width="175" height="8" fill="#555555"/>
  <circle cx="147" cy="1300" r="18" fill="#555555"/>
  <circle cx="187" cy="1300" r="18" fill="#555555"/>
  <circle cx="227" cy="1300" r="18" fill="#555555"/>
  <rect x="100" y="1350" width="175" height="8" fill="#555555"/>
  <rect x="0" y="1390" width="375" height="30" fill="#333333"/>
  <text x="187" y="1410" font-family="Arial" font-size="8" fill="#666666" text-anchor="middle">© 2026</text>
</svg>
