<svg width="1440" height="1400" viewBox="0 0 1440 1400" fill="none" xmlns="http://www.w3.org/2000/svg">
<rect width="1440" height="1400" fill="#F5F5F5"/>
<rect x="0" y="0" width="1440" height="80" fill="#FFFFFF" stroke="#CCCCCC"/>
<rect x="40" y="20" width="120" height="40" fill="#E0E0E0"/>
<text x="100" y="45" font-family="Arial" font-size="11" fill="#666666" text-anchor="middle">LOGO</text>
<rect x="500" y="25" width="400" height="30" fill="#E0E0E0"/>
<text x="700" y="45" font-family="Arial" font-size="11" fill="#666666" text-anchor="middle">NAVIGATION</text>
<rect x="1200" y="20" width="180" height="40" fill="#666666"/>
<text x="1290" y="45" font-family="Arial" font-size="11" fill="#FFFFFF" text-anchor="middle">BOUTON CTA</text>
<rect x="0" y="80" width="1440" height="120" fill="#E0E0E0" stroke="#CCCCCC"/>
<rect x="620" y="95" width="200" height="14" fill="#CCCCCC"/>
<text x="720" y="130" font-family="Arial" font-size="11" fill="#888888" text-anchor="middle">LABEL</text>
<rect x="520" y="140" width="400" height="24" fill="#AAAAAA"/>
<text x="720" y="180" font-family="Arial" font-size="11" fill="#666666" text-anchor="middle">TITRE PAGE</text>
<rect x="200" y="220" width="1040" height="920" fill="#FFFFFF" stroke="#CCCCCC" rx="8"/>
<rect x="500" y="245" width="440" height="28" fill="#F0F0F0"/>
<text x="720" y="264" font-family="Arial" font-size="10" fill="#888888" text-anchor="middle">PROGRESSION</text>
<rect x="240" y="300" width="180" height="16" fill="#CCCCCC"/>
<text x="330" y="335" font-family="Arial" font-size="10" fill="#666666" text-anchor="middle">SECTION ENTREPRISE</text>
<rect x="240" y="355" width="960" height="55" fill="#F8F8F8" stroke="#E0E0E0"/>
<rect x="240" y="440" width="180" height="16" fill="#CCCCCC"/>
<text x="330" y="475" font-family="Arial" font-size="10" fill="#666666" text-anchor="middle">SECTION CONTACT</text>
<rect x="240" y="495" width="460" height="55" fill="#F8F8F8" stroke="#E0E0E0"/>
<rect x="740" y="495" width="460" height="55" fill="#F8F8F8" stroke="#E0E0E0"/>
<rect x="240" y="565" width="460" height="55" fill="#F8F8F8" stroke="#E0E0E0"/>
<rect x="740" y="565" width="460" height="55" fill="#F8F8F8" stroke="#E0E0E0"/>
<rect x="240" y="650" width="180" height="16" fill="#CCCCCC"/>
<text x="330" y="685" font-family="Arial" font-size="10" fill="#666666" text-anchor="middle">SECTION EVENEMENT</text>
<rect x="240" y="705" width="460" height="55" fill="#F8F8F8" stroke="#E0E0E0"/>
<rect x="740" y="705" width="460" height="55" fill="#F8F8F8" stroke="#E0E0E0"/>
<rect x="240" y="775" width="460" height="55" fill="#F8F8F8" stroke="#E0E0E0"/>
<rect x="740" y="775" width="460" height="55" fill="#F8F8F8" stroke="#E0E0E0"/>
<rect x="240" y="845" width="960" height="100" fill="#F8F8F8" stroke="#E0E0E0"/>
<rect x="240" y="970" width="220" height="50" fill="#666666"/>
<text x="350" y="1000" font-family="Arial" font-size="11" fill="#FFFFFF" text-anchor="middle">BOUTON ENVOYER</text>
<rect x="240" y="1035" width="350" height="10" fill="#E8E8E8"/>
<rect x="220" y="1080" width="320" height="60" fill="#F0F0F0" stroke="#E0E0E0"/>
<text x="380" y="1115" font-family="Arial" font-size="10" fill="#888888" text-anchor="middle">GARANTIE 1</text>
<rect x="560" y="1080" width="320" height="60" fill="#F0F0F0" stroke="#E0E0E0"/>
<text x="720" y="1115" font-family="Arial" font-size="10" fill="#888888" text-anchor="middle">GARANTIE 2</text>
<rect x="900" y="1080" width="320" height="60" fill="#F0F0F0" stroke="#E0E0E0"/>
<text x="1060" y="1115" font-family="Arial" font-size="10" fill="#888888" text-anchor="middle">GARANTIE 3</text>
<rect x="0" y="1200" width="1440" height="200" fill="#555555"/>
<rect x="100" y="1240" width="200" height="60" fill="#666666"/>
<text x="200" y="1275" font-family="Arial" font-size="10" fill="#CCCCCC" text-anchor="middle">LOGO + INFO</text>
<rect x="400" y="1240" width="150" height="60" fill="#666666"/>
<text x="475" y="1275" font-family="Arial" font-size="10" fill="#CCCCCC" text-anchor="middle">LIENS</text>
<rect x="650" y="1240" width="150" height="60" fill="#666666"/>
<text x="725" y="1275" font-family="Arial" font-size="10" fill="#CCCCCC" text-anchor="middle">SERVICES</text>
<rect x="900" y="1240" width="200" height="60" fill="#666666"/>
<text x="1000" y="1275" font-family="Arial" font-size="10" fill="#CCCCCC" text-anchor="middle">CONTACT</text>
<rect x="0" y="1360" width="1440" height="40" fill="#444444"/>
<text x="720" y="1385" font-family="Arial" font-size="10" fill="#888888" text-anchor="middle">COPYRIGHT</text>
</svg>
