<svg width="1440" height="1400" viewBox="0 0 1440 1400" fill="none" xmlns="http://www.w3.org/2000/svg">
<rect width="1440" height="1400" fill="#F8F8F8"/>
<rect x="0" y="0" width="1440" height="80" fill="#FFFFFF" stroke="#E0E0E0"/>
<rect x="80" y="25" width="150" height="30" fill="#F0F0F0" stroke="#CCCCCC"/>
<text x="155" y="45" font-family="Arial" font-size="11" fill="#555555" text-anchor="middle">Logo Innov Events</text>
<rect x="500" y="30" width="60" height="20" fill="#F5F5F5"/>
<rect x="580" y="30" width="80" height="20" fill="#F5F5F5"/>
<rect x="680" y="30" width="50" height="20" fill="#F5F5F5"/>
<rect x="750" y="30" width="60" height="20" fill="#F5F5F5"/>
<rect x="1250" y="22" width="130" height="36" rx="4" fill="#555555"/>
<text x="1315" y="45" font-family="Arial" font-size="11" fill="#FFFFFF" text-anchor="middle">Connexion</text>
<rect x="0" y="80" width="1440" height="120" fill="#E8E8E8"/>
<rect x="620" y="95" width="200" height="12" fill="#D0D0D0"/>
<text x="720" y="130" font-family="Arial" font-size="10" fill="#888888" text-anchor="middle">Label: Devis gratuit</text>
<rect x="520" y="140" width="400" height="26" fill="#C0C0C0"/>
<text x="720" y="182" font-family="Arial" font-size="11" fill="#555555" text-anchor="middle">Titre: Demande de Devis</text>
<rect x="680" y="188" width="80" height="4" fill="#999999"/>
<rect x="200" y="220" width="1040" height="920" rx="12" fill="#FFFFFF" stroke="#E0E0E0"/>
<rect x="450" y="245" width="540" height="32" fill="#F5F5F5" rx="16"/>
<circle cx="520" cy="261" r="11" fill="#555555"/>
<text x="520" y="265" font-family="Arial" font-size="8" fill="#FFFFFF" text-anchor="middle">1</text>
<rect x="540" y="256" width="70" height="10" fill="#D0D0D0"/>
<rect x="625" y="259" width="40" height="3" fill="#CCCCCC"/>
<circle cx="700" cy="261" r="11" fill="#E0E0E0"/>
<text x="700" y="265" font-family="Arial" font-size="8" fill="#888888" text-anchor="middle">2</text>
<rect x="720" y="256" width="70" height="10" fill="#E0E0E0"/>
<rect x="240" y="300" width="180" height="14" fill="#D0D0D0"/>
<text x="260" y="335" font-family="Arial" font-size="10" fill="#666666">Section: Entreprise</text>
<rect x="240" y="355" width="960" height="50" rx="4" fill="#F8F8F8" stroke="#E0E0E0"/>
<text x="260" y="385" font-family="Arial" font-size="10" fill="#888888">Nom de l entreprise *</text>
<rect x="240" y="430" width="180" height="14" fill="#D0D0D0"/>
<text x="260" y="465" font-family="Arial" font-size="10" fill="#666666">Section: Coordonnees</text>
<rect x="240" y="485" width="460" height="50" rx="4" fill="#F8F8F8" stroke="#E0E0E0"/>
<text x="260" y="515" font-family="Arial" font-size="10" fill="#888888">Prenom *</text>
<rect x="740" y="485" width="460" height="50" rx="4" fill="#F8F8F8" stroke="#E0E0E0"/>
<text x="760" y="515" font-family="Arial" font-size="10" fill="#888888">Nom *</text>
<rect x="240" y="550" width="460" height="50" rx="4" fill="#F8F8F8" stroke="#E0E0E0"/>
<text x="260" y="580" font-family="Arial" font-size="10" fill="#888888">Email *</text>
<rect x="740" y="550" width="460" height="50" rx="4" fill="#F8F8F8" stroke="#E0E0E0"/>
<text x="760" y="580" font-family="Arial" font-size="10" fill="#888888">Telephone *</text>
<rect x="240" y="625" width="180" height="14" fill="#D0D0D0"/>
<text x="260" y="660" font-family="Arial" font-size="10" fill="#666666">Section: Evenement</text>
<rect x="240" y="680" width="460" height="50" rx="4" fill="#F8F8F8" stroke="#E0E0E0"/>
<text x="260" y="710" font-family="Arial" font-size="10" fill="#888888">Type d evenement *</text>
<rect x="740" y="680" width="460" height="50" rx="4" fill="#F8F8F8" stroke="#E0E0E0"/>
<text x="760" y="710" font-family="Arial" font-size="10" fill="#888888">Lieu souhaite *</text>
<rect x="240" y="745" width="460" height="50" rx="4" fill="#F8F8F8" stroke="#E0E0E0"/>
<text x="260" y="775" font-family="Arial" font-size="10" fill="#888888">Date souhaitee *</text>
<rect x="740" y="745" width="460" height="50" rx="4" fill="#F8F8F8" stroke="#E0E0E0"/>
<text x="760" y="775" font-family="Arial" font-size="10" fill="#888888">Nb participants *</text>
<rect x="240" y="810" width="960" height="100" rx="4" fill="#F8F8F8" stroke="#E0E0E0"/>
<text x="260" y="845" font-family="Arial" font-size="10" fill="#888888">Description du projet *</text>
<rect x="240" y="935" width="960" height="1" fill="#E0E0E0"/>
<rect x="240" y="960" width="200" height="48" rx="4" fill="#888888"/>
<text x="340" y="989" font-family="Arial" font-size="11" fill="#FFFFFF" text-anchor="middle">Envoyer ma demande</text>
<rect x="240" y="1025" width="350" height="8" fill="#E8E8E8"/>
<text x="240" y="1055" font-family="Arial" font-size="9" fill="#AAAAAA">RGPD / consentement</text>
<rect x="220" y="1080" width="320" height="60" rx="8" fill="#F5F5F5" stroke="#E8E8E8"/>
<text x="250" y="1115" font-family="Arial" font-size="14" fill="#888888">⚡</text>
<rect x="280" y="1103" width="90" height="10" fill="#D0D0D0"/>
<rect x="280" y="1120" width="70" height="8" fill="#E0E0E0"/>
<rect x="560" y="1080" width="320" height="60" rx="8" fill="#F5F5F5" stroke="#E8E8E8"/>
<text x="590" y="1115" font-family="Arial" font-size="14" fill="#888888">🎯</text>
<rect x="620" y="1103" width="90" height="10" fill="#D0D0D0"/>
<rect x="620" y="1120" width="70" height="8" fill="#E0E0E0"/>
<rect x="900" y="1080" width="320" height="60" rx="8" fill="#F5F5F5" stroke="#E8E8E8"/>
<text x="930" y="1115" font-family="Arial" font-size="14" fill="#888888">💰</text>
<rect x="960" y="1103" width="90" height="10" fill="#D0D0D0"/>
<rect x="960" y="1120" width="70" height="8" fill="#E0E0E0"/>
<rect x="0" y="1200" width="1440" height="200" fill="#444444"/>
<rect x="100" y="1235" width="120" height="12" fill="#555555"/>
<rect x="100" y="1255" width="180" height="8" fill="#555555"/>
<rect x="100" y="1270" width="160" height="8" fill="#555555"/>
<rect x="450" y="1235" width="80" height="10" fill="#555555"/>
<rect x="450" y="1255" width="60" height="8" fill="#555555"/>
<rect x="450" y="1270" width="70" height="8" fill="#555555"/>
<rect x="700" y="1235" width="80" height="10" fill="#555555"/>
<rect x="700" y="1255" width="140" height="8" fill="#555555"/>
<rect x="700" y="1270" width="100" height="8" fill="#555555"/>
<rect x="0" y="1360" width="1440" height="40" fill="#333333"/>
<text x="720" y="1385" font-family="Arial" font-size="9" fill="#666666" text-anchor="middle">2026 Innov Events</text>
</svg>
