<svg width="375" height="1800" viewBox="0 0 375 1800" fill="none" xmlns="http://www.w3.org/2000/svg">
<rect width="375" height="1800" fill="#F8F8F8"/>
<rect x="0" y="0" width="375" height="44" fill="#444444"/>
<text x="187" y="28" font-family="Arial" font-size="12" fill="#FFFFFF" text-anchor="middle">9:41</text>
<rect x="0" y="44" width="375" height="56" fill="#FFFFFF" stroke="#E0E0E0"/>
<rect x="20" y="58" width="120" height="28" fill="#F0F0F0" stroke="#CCCCCC"/>
<text x="80" y="77" font-family="Arial" font-size="10" fill="#555555" text-anchor="middle">Logo</text>
<rect x="320" y="62" width="35" height="24" rx="4" fill="#F0F0F0"/>
<text x="337" y="78" font-family="Arial" font-size="14" fill="#555555" text-anchor="middle">☰</text>
<rect x="0" y="100" width="375" height="120" fill="#E8E8E8"/>
<rect x="130" y="115" width="115" height="10" fill="#D0D0D0"/>
<text x="187" y="150" font-family="Arial" font-size="9" fill="#888888" text-anchor="middle">Label: Devis gratuit</text>
<rect x="60" y="160" width="255" height="22" fill="#C0C0C0"/>
<text x="187" y="200" font-family="Arial" font-size="10" fill="#555555" text-anchor="middle">Titre: Demande de Devis</text>
<rect x="147" y="208" width="81" height="3" fill="#999999"/>
<rect x="15" y="235" width="345" height="1115" rx="8" fill="#FFFFFF" stroke="#E0E0E0"/>
<rect x="50" y="255" width="275" height="28" fill="#F5F5F5" rx="14"/>
<circle cx="95" cy="269" r="9" fill="#555555"/>
<text x="95" y="272" font-family="Arial" font-size="7" fill="#FFFFFF" text-anchor="middle">1</text>
<rect x="112" y="264" width="55" height="8" fill="#D0D0D0"/>
<rect x="175" y="267" width="25" height="2" fill="#CCCCCC"/>
<circle cx="220" cy="269" r="9" fill="#E0E0E0"/>
<text x="220" y="272" font-family="Arial" font-size="7" fill="#888888" text-anchor="middle">2</text>
<rect x="237" y="264" width="55" height="8" fill="#E0E0E0"/>
<rect x="35" y="305" width="120" height="12" fill="#D0D0D0"/>
<text x="45" y="338" font-family="Arial" font-size="9" fill="#666666">Section: Entreprise</text>
<rect x="35" y="355" width="305" height="45" rx="4" fill="#F8F8F8" stroke="#E0E0E0"/>
<text x="50" y="383" font-family="Arial" font-size="9" fill="#888888">Nom entreprise *</text>
<rect x="35" y="420" width="120" height="12" fill="#D0D0D0"/>
<text x="45" y="453" font-family="Arial" font-size="9" fill="#666666">Section: Coordonnees</text>
<rect x="35" y="470" width="305" height="45" rx="4" fill="#F8F8F8" stroke="#E0E0E0"/>
<text x="50" y="498" font-family="Arial" font-size="9" fill="#888888">Prenom *</text>
<rect x="35" y="525" width="305" height="45" rx="4" fill="#F8F8F8" stroke="#E0E0E0"/>
<text x="50" y="553" font-family="Arial" font-size="9" fill="#888888">Nom *</text>
<rect x="35" y="580" width="305" height="45" rx="4" fill="#F8F8F8" stroke="#E0E0E0"/>
<text x="50" y="608" font-family="Arial" font-size="9" fill="#888888">Email *</text>
<rect x="35" y="635" width="305" height="45" rx="4" fill="#F8F8F8" stroke="#E0E0E0"/>
<text x="50" y="663" font-family="Arial" font-size="9" fill="#888888">Telephone *</text>
<rect x="35" y="700" width="120" height="12" fill="#D0D0D0"/>
<text x="45" y="733" font-family="Arial" font-size="9" fill="#666666">Section: Evenement</text>
<rect x="35" y="750" width="305" height="45" rx="4" fill="#F8F8F8" stroke="#E0E0E0"/>
<text x="50" y="778" font-family="Arial" font-size="9" fill="#888888">Type evenement *</text>
<rect x="35" y="805" width="305" height="45" rx="4" fill="#F8F8F8" stroke="#E0E0E0"/>
<text x="50" y="833" font-family="Arial" font-size="9" fill="#888888">Lieu souhaite *</text>
<rect x="35" y="860" width="305" height="45" rx="4" fill="#F8F8F8" stroke="#E0E0E0"/>
<text x="50" y="888" font-family="Arial" font-size="9" fill="#888888">Date souhaitee *</text>
<rect x="35" y="915" width="305" height="45" rx="4" fill="#F8F8F8" stroke="#E0E0E0"/>
<text x="50" y="943" font-family="Arial" font-size="9" fill="#888888">Nb participants *</text>
<rect x="35" y="970" width="305" height="80" rx="4" fill="#F8F8F8" stroke="#E0E0E0"/>
<text x="50" y="998" font-family="Arial" font-size="9" fill="#888888">Description *</text>
<rect x="35" y="1075" width="305" height="1" fill="#E0E0E0"/>
<rect x="35" y="1095" width="305" height="45" rx="4" fill="#888888"/>
<text x="187" y="1123" font-family="Arial" font-size="10" fill="#FFFFFF" text-anchor="middle">Envoyer ma demande</text>
<rect x="35" y="1155" width="180" height="6" fill="#E8E8E8"/>
<text x="35" y="1180" font-family="Arial" font-size="8" fill="#AAAAAA">RGPD</text>
<rect x="35" y="1205" width="305" height="55" rx="6" fill="#F5F5F5" stroke="#E8E8E8"/>
<text x="55" y="1237" font-family="Arial" font-size="12" fill="#888888">⚡</text>
<rect x="80" y="1225" width="70" height="9" fill="#D0D0D0"/>
<rect x="80" y="1240" width="50" height="6" fill="#E0E0E0"/>
<rect x="35" y="1275" width="305" height="55" rx="6" fill="#F5F5F5" stroke="#E8E8E8"/>
<text x="55" y="1307" font-family="Arial" font-size="12" fill="#888888">🎯</text>
<rect x="80" y="1295" width="70" height="9" fill="#D0D0D0"/>
<rect x="80" y="1310" width="50" height="6" fill="#E0E0E0"/>
<rect x="0" y="1400" width="375" height="400" fill="#444444"/>
<rect x="130" y="1435" width="115" height="12" fill="#555555"/>
<rect x="100" y="1460" width="175" height="8" fill="#555555"/>
<circle cx="147" cy="1510" r="16" fill="#555555"/>
<circle cx="187" cy="1510" r="16" fill="#555555"/>
<circle cx="227" cy="1510" r="16" fill="#555555"/>
<rect x="100" y="1560" width="175" height="8" fill="#555555"/>
<rect x="115" y="1580" width="145" height="8" fill="#555555"/>
<rect x="0" y="1760" width="375" height="40" fill="#333333"/>
<text x="187" y="1785" font-family="Arial" font-size="8" fill="#666666" text-anchor="middle">2026</text>
</svg>
