<svg width="1000" height="500" viewBox="0 0 1000 500" fill="none" xmlns="http://www.w3.org/2000/svg">
<rect width="1000" height="500" fill="#FFFFFF"/>
<text x="500" y="35" font-family="Arial" font-size="20" fill="#1E3A8A" text-anchor="middle" font-weight="bold" text-decoration="underline">Schéma représentant l'architecture 3 tiers</text>
<text x="150" y="80" font-family="Arial" font-size="16" fill="#64748B" text-anchor="middle" font-weight="bold">Couche de présentation</text>
<text x="500" y="80" font-family="Arial" font-size="16" fill="#64748B" text-anchor="middle" font-weight="bold">Couche métier</text>
<text x="850" y="80" font-family="Arial" font-size="16" fill="#64748B" text-anchor="middle" font-weight="bold">Couche d'accès</text>
<text x="850" y="100" font-family="Arial" font-size="16" fill="#64748B" text-anchor="middle" font-weight="bold">aux données</text>
<line x1="300" y1="60" x2="300" y2="450" stroke="#CCCCCC" stroke-width="2" stroke-dasharray="8,4"/>
<line x1="700" y1="60" x2="700" y2="450" stroke="#CCCCCC" stroke-width="2" stroke-dasharray="8,4"/>
<rect x="60" y="130" width="180" height="120" rx="8" fill="#F8FAFC" stroke="#E2E8F0" stroke-width="2"/>
<rect x="70" y="140" width="160" height="80" rx="4" fill="#1E3A8A"/>
<rect x="80" y="150" width="140" height="60" fill="#DBEAFE"/>
<rect x="85" y="155" width="60" height="8" fill="#1E3A8A"/>
<rect x="85" y="168" width="130" height="6" fill="#94A3B8"/>
<rect x="85" y="178" width="130" height="6" fill="#94A3B8"/>
<rect x="85" y="188" width="130" height="6" fill="#94A3B8"/>
<rect x="85" y="198" width="80" height="6" fill="#94A3B8"/>
<rect x="130" y="225" width="40" height="15" rx="2" fill="#64748B"/>
<text x="150" y="270" font-family="Arial" font-size="11" fill="#1E293B" text-anchor="middle" font-weight="bold">Desktop</text>
<rect x="80" y="300" width="60" height="100" rx="8" fill="#F8FAFC" stroke="#E2E8F0" stroke-width="2"/>
<rect x="85" y="305" width="50" height="70" fill="#1E3A8A" rx="4"/>
<rect x="88" y="310" width="44" height="60" fill="#DBEAFE"/>
<rect x="91" y="315" width="38" height="5" fill="#D4A845"/>
<rect x="91" y="323" width="38" height="4" fill="#94A3B8"/>
<rect x="91" y="330" width="38" height="4" fill="#94A3B8"/>
<rect x="91" y="337" width="38" height="4" fill="#94A3B8"/>
<rect x="91" y="350" width="20" height="8" rx="2" fill="#1E3A8A"/>
<circle cx="110" cy="390" r="6" fill="#64748B"/>
<text x="110" y="420" font-family="Arial" font-size="11" fill="#1E293B" text-anchor="middle" font-weight="bold">Mobile</text>
<rect x="170" y="310" width="80" height="80" rx="8" fill="#DBEAFE" stroke="#1E3A8A" stroke-width="2"/>
<text x="210" y="345" font-family="Arial" font-size="24" fill="#1E3A8A" text-anchor="middle" font-weight="bold">⚛</text>
<text x="210" y="370" font-family="Arial" font-size="12" fill="#1E3A8A" text-anchor="middle" font-weight="bold">React</text>
<text x="210" y="385" font-family="Arial" font-size="9" fill="#64748B" text-anchor="middle">+ Tailwind</text>
<ellipse cx="380" cy="280" rx="50" ry="35" fill="#E0F2FE" stroke="#0EA5E9" stroke-width="2"/>
<text x="380" y="275" font-family="Arial" font-size="11" fill="#0369A1" text-anchor="middle" font-weight="bold">Internet</text>
<text x="380" y="290" font-family="Arial" font-size="9" fill="#0369A1" text-anchor="middle">HTTP/HTTPS</text>
<path d="M260 200 L330 270" stroke="#1E3A8A" stroke-width="3" fill="none" marker-end="url(#arrowBlue)"/>
<path d="M330 290 L260 340" stroke="#1E3A8A" stroke-width="3" fill="none" marker-end="url(#arrowBlue)"/>
<path d="M250 350 L330 290" stroke="#1E3A8A" stroke-width="3" fill="none" marker-end="url(#arrowBlue)"/>
<defs>
<marker id="arrowBlue" markerWidth="10" markerHeight="10" refX="9" refY="3" orient="auto" markerUnits="strokeWidth">
<path d="M0,0 L0,6 L9,3 z" fill="#1E3A8A"/>
</marker>
<marker id="arrowGreen" markerWidth="10" markerHeight="10" refX="9" refY="3" orient="auto" markerUnits="strokeWidth">
<path d="M0,0 L0,6 L9,3 z" fill="#22C55E"/>
</marker>
</defs>
<rect x="450" y="150" width="100" height="260" rx="8" fill="#F1F5F9" stroke="#CBD5E1" stroke-width="2"/>
<rect x="460" y="165" width="80" height="15" fill="#22C55E" rx="2"/>
<rect x="460" y="185" width="80" height="15" fill="#22C55E" rx="2"/>
<rect x="460" y="205" width="80" height="15" fill="#22C55E" rx="2"/>
<rect x="460" y="225" width="80" height="15" fill="#22C55E" rx="2"/>
<rect x="460" y="245" width="80" height="15" fill="#22C55E" rx="2"/>
<rect x="460" y="270" width="80" height="8" fill="#94A3B8" rx="1"/>
<rect x="460" y="282" width="80" height="8" fill="#94A3B8" rx="1"/>
<rect x="460" y="294" width="80" height="8" fill="#94A3B8" rx="1"/>
<circle cx="470" y="320" r="5" fill="#22C55E"/>
<circle cx="485" y="320" r="5" fill="#22C55E"/>
<circle cx="500" y="320" r="5" fill="#EAB308"/>
<rect x="460" y="335" width="80" height="60" fill="#1E293B" rx="4"/>
<text x="500" y="360" font-family="Courier" font-size="8" fill="#22C55E" text-anchor="middle">$ node</text>
<text x="500" y="375" font-family="Courier" font-size="8" fill="#22C55E" text-anchor="middle">server.js</text>
<text x="500" y="430" font-family="Arial" font-size="12" fill="#1E293B" text-anchor="middle" font-weight="bold">Serveur</text>
<text x="500" y="448" font-family="Arial" font-size="11" fill="#22C55E" text-anchor="middle" font-weight="bold">Node.js / Express</text>
<line x1="430" y1="280" x2="450" y2="280" stroke="#1E3A8A" stroke-width="3" marker-end="url(#arrowBlue)"/>
<line x1="550" y1="280" x2="570" y2="280" stroke="#1E3A8A" stroke-width="3" marker-end="url(#arrowBlue)"/>
<rect x="580" y="200" width="100" height="60" rx="4" fill="#E0F2FE" stroke="#0EA5E9" stroke-width="2"/>
<text x="630" y="225" font-family="Arial" font-size="10" fill="#0369A1" text-anchor="middle" font-weight="bold">API REST</text>
<text x="630" y="242" font-family="Arial" font-size="9" fill="#0369A1" text-anchor="middle">JSON</text>
<text x="630" y="255" font-family="Arial" font-size="8" fill="#64748B" text-anchor="middle">JWT Auth</text>
<rect x="580" y="300" width="100" height="60" rx="4" fill="#FEF3C7" stroke="#F59E0B" stroke-width="2"/>
<text x="630" y="325" font-family="Arial" font-size="10" fill="#B45309" text-anchor="middle" font-weight="bold">Services</text>
<text x="630" y="342" font-family="Arial" font-size="9" fill="#B45309" text-anchor="middle">Couche métier</text>
<text x="630" y="355" font-family="Arial" font-size="8" fill="#64748B" text-anchor="middle">Abstraction SQL</text>
<line x1="680" y1="230" x2="750" y2="200" stroke="#0EA5E9" stroke-width="2"/>
<line x1="680" y1="330" x2="750" y2="280" stroke="#F59E0B" stroke-width="2"/>
<line x1="680" y1="330" x2="750" y2="380" stroke="#F59E0B" stroke-width="2"/>
<rect x="760" y="130" width="160" height="100" rx="8" fill="#DBEAFE" stroke="#1E3A8A" stroke-width="3"/>
<rect x="800" y="145" width="80" height="50" fill="#1E3A8A" rx="4"/>
<rect x="810" y="155" width="20" height="8" fill="#DBEAFE" rx="1"/>
<rect x="835" y="155" width="35" height="8" fill="#DBEAFE" rx="1"/>
<rect x="810" y="168" width="55" height="6" fill="#DBEAFE" rx="1"/>
<rect x="810" y="178" width="40" height="6" fill="#DBEAFE" rx="1"/>
<text x="840" y="215" font-family="Arial" font-size="11" fill="#1E3A8A" text-anchor="middle" font-weight="bold">PostgreSQL</text>
<text x="840" y="227" font-family="Arial" font-size="9" fill="#64748B" text-anchor="middle">Données métier</text>
<rect x="760" y="270" width="160" height="100" rx="8" fill="#D1FAE5" stroke="#22C55E" stroke-width="3"/>
<ellipse cx="840" cy="310" rx="40" ry="25" fill="#22C55E"/>
<rect x="810" y="300" width="60" height="25" fill="#D1FAE5"/>
<ellipse cx="840" cy="300" rx="40" ry="12" fill="#22C55E"/>
<text x="840" y="318" font-family="Arial" font-size="9" fill="#FFFFFF" text-anchor="middle" font-weight="bold">docs</text>
<text x="840" y="355" font-family="Arial" font-size="11" fill="#166534" text-anchor="middle" font-weight="bold">MongoDB</text>
<text x="840" y="367" font-family="Arial" font-size="9" fill="#64748B" text-anchor="middle">Logs connexion</text>
<rect x="20" y="460" width="960" height="30" rx="4" fill="#1E3A8A"/>
<text x="500" y="480" font-family="Arial" font-size="12" fill="#FFFFFF" text-anchor="middle" font-weight="bold">INNOV'EVENTS - Architecture 3 Tiers</text>
</svg>
